<svg xmlns="http://www.w3.org/2000/svg" width="385" height="139" fill="none" viewBox="0 0 385 139"><path fill="#004733" d="M117.649 11.656c-14.44 0-25.806 11.151-25.806 25.949 0 14.869 11.366 26.02 25.806 26.02 14.44 0 25.806-11.151 25.806-26.02 0-14.798-11.366-25.95-25.806-25.95Zm0 5.504c11.08 0 20.015 8.793 20.015 20.445 0 11.723-8.935 20.516-20.015 20.516s-20.016-8.793-20.016-20.516c0-11.652 8.936-20.445 20.016-20.445ZM154.698 33.244V26.74h-5.362v36.028h5.505V44.11c0-6.22 3.645-13.153 11.151-13.153 5.362 0 9.293 3.717 9.293 10.008v21.802h5.505V40.68c0-9.008-5.505-14.798-13.725-14.798-6.148 0-10.223 3.003-12.367 7.363ZM203.849 25.881c-10.58 0-18.086 8.292-18.086 18.872 0 10.651 7.506 18.872 18.943 18.872 5.862 0 10.58-2.001 14.512-6.29l-3.431-3.79c-2.645 3.075-6.434 5.005-10.938 5.005-7.077 0-12.652-4.718-13.296-12.224h28.451c.143-.93.286-2.216.286-3.431 0-9.436-6.362-17.014-16.441-17.014Zm0 5.004c6.076 0 10.865 4.146 11.08 10.794v.143h-23.304c.858-6.505 5.79-10.937 12.224-10.937ZM240.616 62.767h16.942c14.44 0 25.305-11.008 25.305-25.234 0-13.94-10.865-25.09-25.305-25.09h-16.942v50.324Zm5.647-5.147V17.59h10.794c11.08 0 19.945 8.578 19.945 19.944 0 11.58-8.936 20.087-20.016 20.087h-10.723ZM309.473 38.963v1.716c-11.938-.93-23.661 1.644-23.661 12.438 0 6.22 4.932 10.508 11.509 10.508 5.433 0 9.936-2.716 12.51-7.363v6.505h5.146V39.392c0-8.364-5.575-13.51-14.296-13.51-6.22 0-10.866 2.644-13.94 6.29l2.931 3.574c2.359-2.716 6.148-4.932 10.58-4.932 5.718 0 9.221 3.145 9.221 8.149Zm-11.366 19.944c-4.003 0-6.934-2.43-6.934-6.076 0-6.362 6.577-8.15 13.439-8.15 1.716 0 3.431.072 5.076.287v2.645c0 5.647-5.004 11.294-11.581 11.294ZM318.519 76.921c1.644.787 3.503 1.001 5.147 1.001 5.862 0 8.507-3.288 10.794-8.864l17.228-42.248h-5.933l-11.366 28.952-11.438-28.951h-6.148l14.941 35.527-1.859 4.79c-1.716 4.36-3.574 6.076-6.648 6.076-1.072 0-2.931-.143-4.718-1.287v5.004ZM121.938 110.915l17.442-27.236v39.531h5.647V72.885h-5.146l-19.659 31.382-19.73-31.382h-5.147v50.325h5.648V83.68l17.442 27.235h3.503ZM169.391 86.324c-10.651 0-18.514 8.293-18.514 18.872 0 10.58 7.863 18.872 18.514 18.872 10.58 0 18.443-8.292 18.443-18.872s-7.863-18.872-18.443-18.872Zm0 5.219c7.506 0 12.796 6.219 12.796 13.653 0 7.435-5.29 13.654-12.796 13.654-7.577 0-12.867-6.219-12.867-13.654 0-7.434 5.29-13.653 12.867-13.653ZM233.614 117.921c-1.573.857-3.36 1.072-4.361 1.072-3.932 0-6.219-2.145-6.219-6.505v-20.66h9.293v-4.646h-9.293v-9.936h-5.504v35.814c0 7.005 4.146 11.008 10.651 11.008 2.287 0 4.146-.429 5.433-1.072v-5.075Zm-34.885-30.739h-5.361v36.028h5.504v-18.3c0-8.149 4.504-13.081 11.152-13.081.5 0 1.143 0 1.501.071V86.54c-.429-.143-1.287-.215-2.002-.215-4.861 0-8.935 2.717-10.794 7.792v-6.934ZM265.197 116.92v4.503c0 7.506-5.076 11.938-12.153 11.938-5.289 0-9.793-2.216-12.652-5.79l-3.718 3.503c3.646 4.575 9.436 7.291 16.37 7.291 10.008 0 17.443-6.505 17.443-16.37V87.182h-5.505v6.148c-2.144-4.075-7.434-7.006-12.724-7.006-9.579 0-17.156 8.007-17.156 18.872 0 10.866 7.577 18.872 17.156 18.872 5.361 0 10.794-3.002 12.939-7.148Zm-12.081 2.073c-6.791 0-12.438-5.79-12.438-13.797 0-8.006 5.647-13.796 12.438-13.796 6.219 0 12.224 5.004 12.224 13.796 0 8.864-6.076 13.797-12.224 13.797ZM299.16 99.406v1.716c-11.938-.93-23.662 1.644-23.662 12.438 0 6.219 4.933 10.508 11.509 10.508 5.433 0 9.937-2.716 12.51-7.363v6.505h5.147V99.835c0-8.364-5.576-13.51-14.297-13.51-6.219 0-10.866 2.644-13.94 6.29l2.931 3.574c2.359-2.716 6.148-4.932 10.58-4.932 5.719 0 9.222 3.145 9.222 8.15Zm-11.367 19.944c-4.003 0-6.934-2.43-6.934-6.076 0-6.362 6.577-8.149 13.44-8.149 1.715 0 3.431.071 5.075.286v2.645c0 5.647-5.004 11.294-11.581 11.294ZM339.717 116.92v4.503c0 7.506-5.076 11.938-12.153 11.938-5.289 0-9.793-2.216-12.652-5.79l-3.718 3.503c3.646 4.575 9.436 7.291 16.37 7.291 10.008 0 17.443-6.505 17.443-16.37V87.182h-5.505v6.148c-2.144-4.075-7.434-7.006-12.724-7.006-9.579 0-17.156 8.007-17.156 18.872 0 10.866 7.577 18.872 17.156 18.872 5.361 0 10.794-3.002 12.939-7.148Zm-12.081 2.073c-6.791 0-12.438-5.79-12.438-13.797 0-8.006 5.647-13.796 12.438-13.796 6.219 0 12.224 5.004 12.224 13.796 0 8.864-6.076 13.797-12.224 13.797ZM367.898 86.324c-10.58 0-18.086 8.293-18.086 18.872 0 10.652 7.506 18.872 18.943 18.872 5.862 0 10.58-2.001 14.512-6.29l-3.431-3.789c-2.645 3.074-6.434 5.004-10.938 5.004-7.077 0-12.652-4.718-13.296-12.224h28.451c.143-.929.286-2.216.286-3.431 0-9.436-6.362-17.014-16.441-17.014Zm0 5.004c6.076 0 10.865 4.146 11.08 10.794v.143h-23.304c.858-6.505 5.79-10.937 12.224-10.937Z"/><mask id="a" width="125" height="125" x="0" y="0" maskUnits="userSpaceOnUse" style="mask-type:alpha"><circle cx="62.187" cy="62.187" r="62.187" fill="#D9D9D9"/></mask><g fill="#004733" mask="url(#a)"><path d="m66.833-.635 11.363 1.939-2.484 14.558-11.363-1.94zM48.111 109.079l11.363 1.939-2.484 14.558-11.363-1.94zM26.885 95.906l8.624 7.156-9.541 11.499-8.624-7.156zM14.856 73.92l3.891 10.508-14.012 5.188L.844 79.107zM15.295 48.671l-1.94 11.363-14.557-2.484 1.94-11.363z"/><path d="m15.295 48.671-1.94 11.363-14.557-2.484 1.94-11.363zM50.463 15.42l-10.51 3.89-5.187-14.012 10.509-3.89zM28.48 27.454l-7.156 8.624-11.499-9.542 7.156-8.623zM73.531 53.74l-12.846 77.444H39.677L49.35 73.1h-.454l-18.59 10.135 2.872-17.849L54.186 53.74h19.345Z"/></g><path fill="#004733" d="M369.012 9.824h1.734V1.79h2.866V0h-7.466v1.79h2.866v8.034Zm11.539-2.545 2.488-4.972v7.517h1.773V0h-2.451l-2.414 4.892L377.496 0h-2.451v9.824h1.735V2.307l2.526 4.972h1.245Z"/></svg>